<svg xmlns="http://www.w3.org/2000/svg" viewBox="0 0 63.67 51.7"><defs><style>.cls-1{isolation:isolate;}.cls-2{fill:#111b34;}.cls-3{fill:#1f3051;}.cls-4{fill:#1a2947;}.cls-5{fill:#baa999;}.cls-6{fill:#d3d3d3;}.cls-7{fill:#eee;}.cls-8{fill:#f44a4a;}.cls-9{fill:#e52c54;}.cls-10{fill:#9f1c3b;}.cls-11{fill:#e7478d;}.cls-12{fill:#2525bf;}.cls-13{fill:#383fbb;}.cls-14{fill:#3d43af;}.cls-15{fill:#9eafaf;}.cls-16{fill:#b9c6c6;}.cls-17{fill:#8b9bb1;}.cls-18{fill:#79889b;}.cls-19{fill:#b3b2da;}.cls-20{fill:#748599;}.cls-21{fill:#4e6475;}.cls-22{fill:#5e7184;}.cls-23{fill:#1c6168;}</style></defs><title>Article2</title><g id="Capa_2" data-name="Capa 2"><g id="Layer_1" data-name="Layer 1"><g class="cls-1"><polygon class="cls-2" points="32.03 35.98 32.05 41.76 32.43 41.54 32.41 36.21 32.03 35.98"/></g><g class="cls-1"><polygon class="cls-3" points="44.14 48.77 44.15 49.32 63.12 38.37 63.12 37.81 44.14 48.77"/><polygon class="cls-4" points="44.14 48.76 32.05 41.74 32.06 42.3 44.15 49.32 44.14 48.76"/><polygon class="cls-2" points="63.12 37.81 51.03 30.79 32.05 41.74 44.14 48.77 63.12 37.81"/></g><polygon class="cls-5" points="62.31 32.29 50.51 25.43 32.41 35.87 44.22 42.74 62.31 32.29"/><polygon class="cls-6" points="32.41 35.87 44.26 42.74 44.23 48.4 32.43 41.54 32.41 35.87"/><path class="cls-7" d="M62.28,32.27a8.73,8.73,0,0,0,0,5.69L44.23,48.4a8.92,8.92,0,0,1,0-5.66Z"/><g class="cls-1"><polygon class="cls-3" points="44.14 42.48 44.15 43.04 63.12 32.08 63.12 31.53 44.14 42.48"/><polygon class="cls-4" points="44.14 42.48 32.04 35.45 32.03 36 44.15 43.04 44.14 42.48"/><polygon class="cls-2" points="31.77 35.29 32.67 35.81 32.94 35.97 44.14 42.48 63.12 31.52 51.91 25.02 51.65 24.86 50.75 24.34 31.77 35.29"/></g><polygon class="cls-4" points="31.77 35.29 31.77 42.13 32.05 42.29 32.05 35.45 31.77 35.29"/><polygon class="cls-8" points="32.67 35.81 32.94 35.97 51.91 25.02 51.65 24.86 32.67 35.81"/><g class="cls-1"><polygon class="cls-9" points="45.29 40.77 45.29 41.22 63.67 30.61 63.67 30.15 45.29 40.77"/><polygon class="cls-10" points="45.29 40.77 34.15 34.3 34.16 34.75 45.29 41.22 45.29 40.77"/><polygon class="cls-11" points="63.67 30.15 52.54 23.68 34.15 34.3 45.29 40.77 63.67 30.15"/></g><polygon class="cls-9" points="34.42 31.56 34.42 34.43 34.87 34.16 34.87 31.81 34.42 31.56"/><polygon class="cls-6" points="45.51 37.61 34.73 31.36 34.74 34.24 45.52 40.49 45.51 37.61"/><path class="cls-7" d="M45.51,37.61h0L63.43,27.27a3.6,3.6,0,0,0,0,2.88L45.52,40.49h0A3.83,3.83,0,0,1,45.51,37.61Z"/><g class="cls-1"><polygon class="cls-9" points="45.28 37.44 45.28 37.89 63.67 27.28 63.67 26.82 45.28 37.44"/><polygon class="cls-10" points="45.28 37.44 34.15 30.97 34.15 31.42 45.28 37.89 45.28 37.44"/><polygon class="cls-11" points="63.67 26.82 52.54 20.35 34.16 30.97 45.29 37.44 63.67 26.82"/></g><polygon class="cls-10" points="34.42 31.58 34.42 34.45 34.15 34.3 34.15 31.41 34.42 31.58"/><polygon class="cls-12" points="47.52 34.24 59.55 27.24 51.4 22.54 39.37 29.53 47.52 34.24"/><polygon class="cls-13" points="47.83 34.71 59.87 27.72 59.88 23.73 47.85 30.72 47.83 34.71"/><g class="cls-1"><path class="cls-7" d="M39.62,29.41,47.54,34V30.77l-7.92-4.59a5.07,5.07,0,0,1,.22,1.72A3.33,3.33,0,0,1,39.62,29.41Z"/></g><polygon class="cls-14" points="39.38 25.84 39.38 26.15 47.52 30.86 47.52 34.24 39.37 29.53 39.37 29.82 47.83 34.71 47.85 30.72 39.38 25.84"/><polygon class="cls-13" points="47.85 30.72 59.88 23.73 51.41 18.84 39.38 25.84 47.85 30.72"/><polygon class="cls-14" points="59.05 23.73 51.41 19.32 40.2 25.84 47.84 30.25 59.05 23.73"/><polygon class="cls-13" points="57.95 23.73 51.41 19.96 41.3 25.83 47.84 29.61 57.95 23.73"/><path class="cls-3" d="M35.83,42.64c.71.41,1.29.08,1.29-.74a2.83,2.83,0,0,0-1.29-2.22c-.7-.41-1.28-.08-1.28.74A2.83,2.83,0,0,0,35.83,42.64Z"/><path class="cls-2" d="M36.41,42.54c.39,0,.43-.45.43-.64a2.58,2.58,0,0,0-1.14-2,.93.93,0,0,0-.44-.14c-.39,0-.43.45-.43.64a2.55,2.55,0,0,0,1.14,2A.93.93,0,0,0,36.41,42.54Z"/><path class="cls-15" d="M32.2,43.71a.82.82,0,0,0-.37-.63.27.27,0,0,0-.26,0l4-2.31a.27.27,0,0,1,.26,0,.81.81,0,0,1,.36.63.27.27,0,0,1-.1.24l-4,2.31A.28.28,0,0,0,32.2,43.71Z"/><path class="cls-16" d="M31.83,43.92a.8.8,0,0,1-.36-.63.27.27,0,0,1,.1-.23.27.27,0,0,1,.26,0,.82.82,0,0,1,.37.63.28.28,0,0,1-.11.24A.25.25,0,0,1,31.83,43.92Z"/><path class="cls-17" d="M28.86,44.23a2.13,2.13,0,0,1,1,1.66.67.67,0,0,1-.28.61.68.68,0,0,1-.68-.06,2.12,2.12,0,0,1-.95-1.66.58.58,0,0,1,.95-.55Z"/><path class="cls-18" d="M34,40.5l0,0-.29.19-1.59,1-.25.17-.28.17-.29.19-.77.48-.26.17-1.29.81-.26.16-.5.31a.69.69,0,0,1,.68.07,2.13,2.13,0,0,1,1,1.66.86.86,0,0,1-.08.38.57.57,0,0,1-.2.23l.51-.27.28-.14,1.34-.71h0l.28-.15.8-.42.31-.16.29-.15.27-.14,1.65-.88.31-.16h0a.82.82,0,0,0,.33-.74,2.54,2.54,0,0,0-1.15-2A.82.82,0,0,0,34,40.5Z"/><path class="cls-17" d="M32.6,41.86a2.55,2.55,0,0,1,1.14,2,1.14,1.14,0,0,1-.12.52l-.27.14a1.19,1.19,0,0,0,.11-.5,2.54,2.54,0,0,0-1.15-2,1,1,0,0,0-.48-.15l.25-.17A1,1,0,0,1,32.6,41.86Z"/><path class="cls-17" d="M34,40.52l-.29.19a1.12,1.12,0,0,1,.39.15,2.81,2.81,0,0,1,1.28,2.21,1.07,1.07,0,0,1-.07.41l.31-.16a1.4,1.4,0,0,0,.07-.44,2.8,2.8,0,0,0-1.27-2.2A1.16,1.16,0,0,0,34,40.52Z"/><path class="cls-17" d="M30.49,42.71l-.26.17a1.32,1.32,0,0,1,.37.14,2.52,2.52,0,0,1,1.13,2,1.14,1.14,0,0,1-.06.39l.28-.15a1.2,1.2,0,0,0,.06-.4,2.52,2.52,0,0,0-1.13-2A1.2,1.2,0,0,0,30.49,42.71Z"/><path class="cls-17" d="M30.33,46.09a1.46,1.46,0,0,0,0-.31,2.5,2.5,0,0,0-1.14-2,.89.89,0,0,0-.29-.12l-.26.16L29,44a2.5,2.5,0,0,1,1.14,2,1.27,1.27,0,0,1,0,.29Z"/><path class="cls-4" d="M26.14,20.12l.47.34-.07.11A4.38,4.38,0,0,1,27.19,23a11,11,0,0,1-5,8.65,4.22,4.22,0,0,1-2.65.66l0,0L19,32.21h0c-1.1-.43-1.79-1.62-1.79-3.39a11,11,0,0,1,5-8.65C23.8,19.23,25.23,19.29,26.14,20.12Z"/><path class="cls-3" d="M26.54,20.42h0l.53.32-.05.09a3.92,3.92,0,0,1,.88,2.73A10.85,10.85,0,0,1,23,32.06a4,4,0,0,1-2.81.6l-.05.09-.54-.31h0a3.4,3.4,0,0,1-1.51-3.22A10.84,10.84,0,0,1,23,20.72,3.4,3.4,0,0,1,26.54,20.42Z"/><path class="cls-2" d="M28.58,23.94c0-3.13-2.2-4.4-4.91-2.83a10.82,10.82,0,0,0-4.91,8.5c0,3.13,2.19,4.4,4.91,2.84A10.88,10.88,0,0,0,28.58,23.94Z"/><path class="cls-19" d="M28.17,22h0l.06.05.14.12.54.44-.07.13a4.06,4.06,0,0,1,.51,2.11,10.09,10.09,0,0,1-4.56,7.89,4.13,4.13,0,0,1-2.08.62l-.07.12-.71-.26-.07,0-.05,0h0c-1-.41-1.58-1.48-1.58-3.07a10.05,10.05,0,0,1,4.56-7.89A3.08,3.08,0,0,1,28.17,22Z"/><path class="cls-18" d="M28.67,22.43h0l.37.22,0,.07a3.47,3.47,0,0,1,.86,2.53,9.78,9.78,0,0,1-4.43,7.68,3.46,3.46,0,0,1-2.62.52l0,.07-.43-.25h0A3.08,3.08,0,0,1,21,30.36a9.8,9.8,0,0,1,4.44-7.69A3.05,3.05,0,0,1,28.67,22.43Z"/><path class="cls-17" d="M30.43,25.55c0-2.83-2-4-4.44-2.56a9.83,9.83,0,0,0-4.44,7.69c0,2.83,2,4,4.44,2.56A9.81,9.81,0,0,0,30.43,25.55Z"/><path class="cls-19" d="M24,32.72a2.94,2.94,0,0,0,1.42-.46,8.69,8.69,0,0,0,3.87-6.71c0-.61-.13-2-1.32-2a3,3,0,0,0-1.42.45,8.72,8.72,0,0,0-3.87,6.71C22.68,31.29,22.81,32.72,24,32.72Z"/><path class="cls-19" d="M9,12.56C9,9.7,7,8.54,4.49,10A9.91,9.91,0,0,0,0,17.74c0,2.86,2,4,4.49,2.59A9.93,9.93,0,0,0,9,12.56Z"/><path class="cls-17" d="M9.46,12.84c0-2.86-2-4-4.49-2.59A9.93,9.93,0,0,0,.49,18c0,2.86,2,4,4.48,2.59A9.91,9.91,0,0,0,9.46,12.84Z"/><path class="cls-4" d="M10.4,10.6l-.31.54a4.32,4.32,0,0,1,.45,2.07,10.42,10.42,0,0,1-4.71,8.17,4.26,4.26,0,0,1-2,.64l-.31.53-1.14-.92h0a3.4,3.4,0,0,1-1.25-3,10.41,10.41,0,0,1,4.72-8.18A3.46,3.46,0,0,1,9,10H9Z"/><path class="cls-2" d="M11.26,11.26a4,4,0,0,1,.79,2.62,10.79,10.79,0,0,1-4.88,8.45A4.06,4.06,0,0,1,4.5,23l-.07.13-.71-.41h0a3.39,3.39,0,0,1-1.43-3.15,10.78,10.78,0,0,1,4.88-8.46,3.42,3.42,0,0,1,3.45-.34h0l.71.41Z"/><path class="cls-4" d="M12.86,14.34c0-3.11-2.19-4.37-4.89-2.81A10.78,10.78,0,0,0,3.1,20c0,3.11,2.18,4.38,4.87,2.82A10.79,10.79,0,0,0,12.86,14.34Z"/><path class="cls-2" d="M10.9,12.1a1.36,1.36,0,0,0-.57-.18,3.3,3.3,0,0,0-1.83.52A9,9,0,0,0,5.44,15.7,9,9,0,0,0,4.15,20a2.83,2.83,0,0,0,.63,2,1.13,1.13,0,0,0,.27.22,2.5,2.5,0,0,0,2.4-.34,9,9,0,0,0,3.07-3.26,9.08,9.08,0,0,0,1.28-4.29A2.47,2.47,0,0,0,10.9,12.1Z"/><path class="cls-17" d="M10.37,11.9a3.14,3.14,0,0,0-1.72.45l-.11.06a8.88,8.88,0,0,0-3.06,3.26A9.12,9.12,0,0,0,4.18,20a1.62,1.62,0,0,1,0,.22A2.81,2.81,0,0,0,4.81,22a3.21,3.21,0,0,0,1.83-.52,9,9,0,0,0,3.07-3.26A9.08,9.08,0,0,0,11,13.93,2.88,2.88,0,0,0,10.37,11.9Z"/><path class="cls-19" d="M8.65,12.35l-.11.06a8.88,8.88,0,0,0-3.06,3.26A9.12,9.12,0,0,0,4.18,20a1.62,1.62,0,0,1,0,.22A2.26,2.26,0,0,0,6.44,20a7,7,0,0,0,3.18-5.52A2.21,2.21,0,0,0,8.65,12.35Z"/><g class="cls-1"><path class="cls-20" d="M7.79,2.19l2.4-1.4C6.58,2.85,6.53,10,6.53,10l-2.4,1.39C4.13,11.36,4.18,4.25,7.79,2.19Z"/><path class="cls-21" d="M14.44,2.85c-2.76-1.6-5-1.9-6.79-.91C4,4,3.93,11.24,3.93,11.31l.2.12c0-.07,0-7.18,3.66-9.24,1.71-1,4-.68,6.65.88a16.65,16.65,0,0,1,6.17,6.39A28.71,28.71,0,0,1,23.79,23l.21.13A29.4,29.4,0,0,0,20.75,9.38,16.82,16.82,0,0,0,14.44,2.85Z"/><path class="cls-17" d="M20.09,8.39l-.41-.6-.1-.14c-.12-.18-.25-.35-.38-.52L19.1,7c-.17-.22-.35-.44-.54-.65l-.14-.17-.24-.27L18,5.73l-.26-.26-.15-.16-.66-.61-.12-.1c-.22-.19-.45-.38-.69-.56L16,4l-.74-.53-.09,0q-.39-.27-.81-.51l-.47-.26-.14-.07-.33-.17-.16-.08L13,2.15l-.16-.07L12.61,2l-.37-.15-.19-.06a3,3,0,0,0-.4-.12l-.14,0-.17,0-.26-.05-.17,0-.25,0-.13,0-.27,0h-.8c-.16,0-.31,0-.46.06H9l-.43.1-.13,0-.29.1L8,1.76l-.35.17L7.59,2,10,.57h0l0,0A3.84,3.84,0,0,1,10.4.36l.06,0,.07,0,.3-.1.08,0H11a3.2,3.2,0,0,1,.42-.1h0A3.55,3.55,0,0,1,11.86,0h.8l.27,0,.12,0h.08l.17,0,.18,0,.25.06.18,0h0l.1,0,.4.13.18.06L15,.6l.11.05.09,0,.16.07.3.13.17.08.31.16.15.08.48.26q.41.24.81.51l.09,0c.25.17.49.35.73.53l.12.09.69.56.11.1c.23.2.45.4.66.61l0,0,.12.12.25.25.17.19.25.27.08.1L21,5l.54.66,0,0,.06.09.38.51a.86.86,0,0,1,.07.1.1.1,0,0,1,0,.05c.14.2.27.4.4.6V7l.05.08c.11.17.22.34.32.52a.35.35,0,0,0,.05.08,3.07,3.07,0,0,1,.17.31l.23.4a.2.2,0,0,0,0,.08c.1.2.2.39.29.59l.05.08h0c.12.24.23.49.33.73l0,.07a.61.61,0,0,1,.05.12l.3.71,0,.09a0,0,0,0,1,0,0c.12.33.24.65.35,1l0,.08,0,.11c0,.13.09.25.13.38l.07.25c.05.14.09.29.13.44s0,.1,0,.15v0c.07.26.14.52.2.77l.05.2.15.67s0,0,0,.07v0c0,.21.09.41.13.62a1,1,0,0,0,0,.16c0,.14.06.29.08.44s0,.14,0,.21l.06.37,0,.22c0,.12,0,.24,0,.36s0,.1,0,.14a.13.13,0,0,0,0,.06,1,1,0,0,0,0,.17l0,.29c0,.06,0,.11,0,.17l0,.26c0,.06,0,.12,0,.18a1.94,1.94,0,0,1,0,.24.88.88,0,0,1,0,.17c0,.07,0,.14,0,.22a.86.86,0,0,0,0,.16c0,.07,0,.14,0,.21a.71.71,0,0,1,0,.14c0,.07,0,.14,0,.2s0,.09,0,.13a1.15,1.15,0,0,0,0,.19v.28a.41.41,0,0,1,0,.11v.37a.25.25,0,0,1,0,.08v.28a.06.06,0,0,0,0,0v.09h0v.06h0v0l-2.39,1.4V22.8h0v-.54a.28.28,0,0,0,0-.09v-.27a1,1,0,0,1,0-.17.57.57,0,0,0,0-.13,1.09,1.09,0,0,0,0-.18v-.15c0-.06,0-.13,0-.2a.76.76,0,0,0,0-.15,1.48,1.48,0,0,0,0-.21v-.17a1.64,1.64,0,0,1,0-.22c0-.06,0-.12,0-.18s0-.16,0-.24,0-.12,0-.18l0-.25a1.23,1.23,0,0,0,0-.19l0-.27s0-.08,0-.12l-.06-.44,0-.17-.06-.41,0-.19-.09-.47c0-.05,0-.09,0-.14s-.08-.41-.13-.62a.29.29,0,0,0,0-.09l-.15-.69a.94.94,0,0,1,0-.16c-.07-.26-.13-.52-.21-.78,0-.06,0-.12,0-.17s-.09-.3-.14-.46a1.87,1.87,0,0,0-.07-.22l-.12-.4c0-.07-.05-.13-.07-.19-.11-.32-.22-.64-.34-1L22,12.2c-.09-.25-.2-.49-.3-.73a1.22,1.22,0,0,0-.07-.17c-.11-.25-.22-.49-.34-.73a1,1,0,0,0,0-.1L21,9.88l-.26-.48c-.07-.13-.15-.26-.23-.38s-.2-.35-.31-.52Z"/></g><path class="cls-22" d="M26.33,20.71c0,.13.09.84.64.95a7.1,7.1,0,0,0-3.24,1.87s.24-.25.21-1.15Z"/><path class="cls-21" d="M23.8,22.2a1.42,1.42,0,0,1-.45,1.07l.38.26a1.44,1.44,0,0,0,.2-.67A1.47,1.47,0,0,0,23.8,22.2Z"/><path class="cls-22" d="M6.58,9c0,.13-.09.78.52.94A7.35,7.35,0,0,0,3.83,12a2.78,2.78,0,0,0,.34-1.48Z"/><path class="cls-21" d="M4,10.64a1.24,1.24,0,0,1-.5,1.08l.38.26a2.51,2.51,0,0,0,.3-.92C4.14,10.66,4,10.64,4,10.64Z"/><path class="cls-11" d="M25.83,15.4a15.41,15.41,0,0,1-2.33,1.18s.32,1.59.5,3.33a14.56,14.56,0,0,1,.12,2.75,4.88,4.88,0,0,1,2.42-1.3s0-1.19-.2-2.91A30.42,30.42,0,0,0,25.83,15.4Z"/><path class="cls-9" d="M25.83,15.4a13.27,13.27,0,0,1-2.33,1.18l-.1,0,2.31-1.19Z"/><path class="cls-10" d="M23.4,16.53l.1,0s.19.92.4,2.5a25,25,0,0,1,.24,2.76,4.29,4.29,0,0,1,0,.82l-.12,0a11.88,11.88,0,0,0,0-2.23C23.84,19,23.4,16.53,23.4,16.53Z"/><path class="cls-11" d="M21.05,32.23a.27.27,0,0,1,.24,0,.84.84,0,0,1,.38.66.24.24,0,0,1-.11.24L19.78,34a.19.19,0,0,0,.08-.17.57.57,0,0,0-.27-.46.17.17,0,0,0-.19,0L21,32.25l0,0h0Z"/><path class="cls-23" d="M19.4,33.36a.17.17,0,0,1,.19,0,.57.57,0,0,1,.27.46.19.19,0,0,1-.08.17h0a.22.22,0,0,1-.19,0,.61.61,0,0,1-.26-.46.18.18,0,0,1,.07-.17Z"/><path class="cls-2" d="M11.74,51.65c-2.46-.25-5.12-1.56-5.12-3.25a2.23,2.23,0,0,1,1-2c1.58-1,4.78-.56,9,1.32.27.12.55.22.82.31.05-.17.1-.35.14-.54a10.23,10.23,0,0,0-.82-5.87c-1-2.7-1.85-5,2.56-8.13a.28.28,0,0,1,.39.06.29.29,0,0,1-.07.4c-4.05,2.85-3.34,4.79-2.35,7.48a10.66,10.66,0,0,1,.84,6.18,5.66,5.66,0,0,1-.15.59c5.6,1.48,10.61-3,10.66-3.09a.28.28,0,1,1,.38.41c-.05.05-5.31,4.82-11.24,3.21a5.35,5.35,0,0,1-5.21,3A8.11,8.11,0,0,1,11.74,51.65Zm4.68-3.4C12.43,46.48,9.34,46,8,46.89a1.7,1.7,0,0,0-.76,1.51c0,1.18,2.15,2.44,4.61,2.69,1,.11,4.25.19,5.47-2.51A6.78,6.78,0,0,1,16.42,48.25Z"/></g></g></svg>