<svg xmlns="http://www.w3.org/2000/svg" xmlns:xlink="http://www.w3.org/1999/xlink" viewBox="0 0 109.23 85.75"><defs><style>.cls-1{isolation:isolate;}.cls-2{fill:#0202bc;}.cls-3{fill:#383fbb;}.cls-4{fill:#2828c6;}.cls-5{fill:#eee;}.cls-6{fill:#777c99;}.cls-7{fill:#1a2a49;}.cls-8{fill:#111b34;}.cls-9{fill:#7f7060;}.cls-104,.cls-9{opacity:0.3;}.cls-100,.cls-102,.cls-104,.cls-105,.cls-106,.cls-28,.cls-29,.cls-30,.cls-32,.cls-49,.cls-50,.cls-51,.cls-54,.cls-56,.cls-58,.cls-62,.cls-65,.cls-67,.cls-68,.cls-70,.cls-73,.cls-80,.cls-81,.cls-83,.cls-84,.cls-87,.cls-9,.cls-91,.cls-92,.cls-98{mix-blend-mode:multiply;}.cls-10{fill:#184689;}.cls-11{fill:#9f1c3b;}.cls-12{fill:#e7478d;}.cls-13{fill:#0caaba;}.cls-14{fill:#d63c3c;}.cls-15{fill:#99adc6;}.cls-16{fill:#7f90a5;}.cls-17{fill:#8b9bb1;}.cls-18{fill:#114c63;}.cls-19{fill:#77d6e5;}.cls-20{fill:#3d43af;}.cls-21{fill:#0d0dc9;}.cls-22{fill:#bc7800;}.cls-23{fill:#5057de;}.cls-24{fill:#13133d;}.cls-25{fill:url(#linear-gradient);}.cls-26{fill:url(#linear-gradient-2);}.cls-27{fill:url(#linear-gradient-3);}.cls-28{opacity:0.5;}.cls-29{fill:#9b6524;}.cls-105,.cls-106,.cls-29,.cls-87,.cls-91{opacity:0.4;}.cls-30,.cls-51,.cls-84{opacity:0.2;}.cls-30{fill:url(#linear-gradient-4);}.cls-31{fill:url(#linear-gradient-5);}.cls-100,.cls-102,.cls-32,.cls-50,.cls-56,.cls-58,.cls-65,.cls-67,.cls-68,.cls-81,.cls-83,.cls-98{opacity:0.28;}.cls-32{fill:url(#linear-gradient-6);}.cls-33{fill:#ace0f9;}.cls-34{fill:#d2f4ff;}.cls-35{fill:#e6f7ff;}.cls-36{fill:#b9e2ef;}.cls-37{fill:#d4edfc;}.cls-38{fill:#d4f7ff;}.cls-39{fill:#a3d6e2;}.cls-40{fill:#e9f8ff;}.cls-41{fill:#c3e1ea;}.cls-42{fill:#7c1419;}.cls-43{fill:#b31d24;}.cls-44{fill:#c82029;}.cls-45{fill:#a8dae2;}.cls-46{fill:url(#linear-gradient-7);}.cls-47{fill:url(#linear-gradient-8);}.cls-48{fill:url(#linear-gradient-9);}.cls-49{fill:#d5d8db;}.cls-50{fill:url(#linear-gradient-10);}.cls-51{fill:url(#linear-gradient-11);}.cls-52{fill:url(#linear-gradient-12);}.cls-53{fill:#662d14;}.cls-54,.cls-57,.cls-58{fill:#6f3417;}.cls-54{opacity:0.27;}.cls-55{fill:url(#linear-gradient-13);}.cls-56{fill:url(#linear-gradient-14);}.cls-59{fill:#0b1d38;}.cls-60{fill:url(#linear-gradient-15);}.cls-61,.cls-70{fill:#0f2242;}.cls-62{fill:#735ab6;opacity:0.21;}.cls-63{fill:url(#linear-gradient-16);}.cls-64{fill:url(#linear-gradient-17);}.cls-65{fill:#5a479e;}.cls-66{fill:url(#linear-gradient-18);}.cls-67{fill:url(#linear-gradient-19);}.cls-68{fill:url(#linear-gradient-20);}.cls-69{fill:url(#linear-gradient-21);}.cls-70{opacity:0.22;}.cls-71,.cls-73{fill:#606977;}.cls-72{fill:#818c9f;}.cls-73,.cls-92{opacity:0.1;}.cls-74{fill:url(#linear-gradient-22);}.cls-75{fill:url(#linear-gradient-23);}.cls-76{fill:url(#linear-gradient-24);}.cls-77{fill:url(#linear-gradient-25);}.cls-78,.cls-80{fill:#5a2641;}.cls-79{fill:url(#linear-gradient-26);}.cls-80{opacity:0.25;}.cls-81{fill:url(#linear-gradient-27);}.cls-82{fill:url(#linear-gradient-28);}.cls-83{fill:url(#linear-gradient-29);}.cls-84{fill:#08637f;}.cls-85{fill:url(#linear-gradient-30);}.cls-86,.cls-87{fill:#b3b2da;}.cls-88{fill:url(#linear-gradient-31);}.cls-89{fill:#dadae8;}.cls-90{fill:url(#linear-gradient-32);}.cls-91{fill:#84849b;}.cls-92{fill:#61617a;}.cls-93{fill:url(#linear-gradient-33);}.cls-94{fill:url(#linear-gradient-34);}.cls-95{fill:url(#linear-gradient-35);}.cls-96{fill:url(#linear-gradient-36);}.cls-97{fill:url(#linear-gradient-37);}.cls-98{fill:url(#linear-gradient-38);}.cls-99{fill:url(#linear-gradient-39);}.cls-100{fill:url(#linear-gradient-40);}.cls-101{fill:url(#linear-gradient-41);}.cls-102{fill:url(#linear-gradient-42);}.cls-103,.cls-104{fill:#2b1520;}.cls-105{fill:url(#linear-gradient-43);}.cls-106{fill:url(#linear-gradient-44);}.cls-107{fill:#d84545;}</style><linearGradient id="linear-gradient" x1="-84.93" y1="46.08" x2="-81.83" y2="29.86" gradientTransform="translate(142)" gradientUnits="userSpaceOnUse"><stop offset="0.01" stop-color="#dea595"/><stop offset="0.99" stop-color="#e2837a"/></linearGradient><linearGradient id="linear-gradient-2" x1="-76.41" y1="51.08" x2="-83.86" y2="34.54" gradientTransform="translate(142)" gradientUnits="userSpaceOnUse"><stop offset="0.01" stop-color="#55cbe6"/><stop offset="0.99" stop-color="#78cbe6"/></linearGradient><linearGradient id="linear-gradient-3" x1="-83.8" y1="46.28" x2="-80.7" y2="30.08" xlink:href="#linear-gradient"/><linearGradient id="linear-gradient-4" x1="-76.83" y1="44.12" x2="-74.48" y2="44.12" xlink:href="#linear-gradient-2"/><linearGradient id="linear-gradient-5" x1="311.63" y1="44.31" x2="315.37" y2="40.06" gradientTransform="matrix(-1, 0, 0, 1, 370.52, 0)" xlink:href="#linear-gradient"/><linearGradient id="linear-gradient-6" x1="-86.87" y1="42.13" x2="-82.39" y2="42.13" xlink:href="#linear-gradient"/><linearGradient id="linear-gradient-7" x1="-85.8" y1="69.89" x2="-85.51" y2="68.33" xlink:href="#linear-gradient"/><linearGradient id="linear-gradient-8" x1="-91.63" y1="56.55" x2="-91.35" y2="55.08" xlink:href="#linear-gradient"/><linearGradient id="linear-gradient-9" x1="305.03" y1="49.41" x2="308.5" y2="31.32" gradientTransform="matrix(-1, 0, 0, 1, 370.52, 0)" xlink:href="#linear-gradient"/><linearGradient id="linear-gradient-10" x1="301.93" y1="43.72" x2="309.63" y2="43.72" gradientTransform="matrix(-1, 0, 0, 1, 370.52, 0)" xlink:href="#linear-gradient"/><linearGradient id="linear-gradient-11" x1="-75.24" y1="38.07" x2="-73.59" y2="38.07" xlink:href="#linear-gradient-2"/><linearGradient id="linear-gradient-12" x1="-80.9" y1="38.1" x2="-67.93" y2="-17.11" xlink:href="#linear-gradient"/><linearGradient id="linear-gradient-13" x1="-79.07" y1="36.99" x2="-76.79" y2="27.29" xlink:href="#linear-gradient"/><linearGradient id="linear-gradient-14" x1="-79.91" y1="34.78" x2="-77.5" y2="34.78" xlink:href="#linear-gradient"/><linearGradient id="linear-gradient-15" x1="261.57" y1="47.92" x2="270.75" y2="47.92" gradientTransform="matrix(-1, 0, 0, 1, 370.52, 0)" xlink:href="#linear-gradient"/><linearGradient id="linear-gradient-16" x1="269.76" y1="79.87" x2="271.59" y2="79.87" gradientTransform="matrix(-1, 0, 0, 1, 370.52, 0)" xlink:href="#linear-gradient"/><linearGradient id="linear-gradient-17" x1="273.74" y1="79.06" x2="275.32" y2="79.06" gradientTransform="matrix(-1, 0, 0, 1, 370.52, 0)" xlink:href="#linear-gradient"/><linearGradient id="linear-gradient-18" x1="274.11" y1="43.27" x2="276.2" y2="39.86" gradientTransform="matrix(-1, 0, 0, 1, 370.52, 0)" xlink:href="#linear-gradient"/><linearGradient id="linear-gradient-19" x1="274.54" y1="42.48" x2="276.04" y2="40.03" gradientTransform="matrix(-1, 0, 0, 1, 370.52, 0)" xlink:href="#linear-gradient"/><linearGradient id="linear-gradient-20" x1="264.13" y1="51.08" x2="269.3" y2="42.65" gradientTransform="matrix(-1, 0, 0, 1, 370.52, 0)" xlink:href="#linear-gradient"/><linearGradient id="linear-gradient-21" x1="261.28" y1="46.53" x2="261.68" y2="46.53" gradientTransform="matrix(-1, 0, 0, 1, 370.52, 0)" xlink:href="#linear-gradient"/><linearGradient id="linear-gradient-22" x1="261.45" y1="45.33" x2="262.44" y2="45.33" gradientTransform="matrix(-1, 0, 0, 1, 370.52, 0)" xlink:href="#linear-gradient"/><linearGradient id="linear-gradient-23" x1="261.45" y1="45.9" x2="262.57" y2="45.9" gradientTransform="matrix(-1, 0, 0, 1, 370.52, 0)" xlink:href="#linear-gradient"/><linearGradient id="linear-gradient-24" x1="261.36" y1="46.35" x2="262.53" y2="46.35" gradientTransform="matrix(-1, 0, 0, 1, 370.52, 0)" xlink:href="#linear-gradient"/><linearGradient id="linear-gradient-25" x1="261.42" y1="46.86" x2="262.26" y2="46.86" gradientTransform="matrix(-1, 0, 0, 1, 370.52, 0)" xlink:href="#linear-gradient"/><linearGradient id="linear-gradient-26" x1="294.27" y1="11.28" x2="296.08" y2="5.52" gradientTransform="matrix(-0.99, 0.13, 0.13, 0.99, 386.78, -8.55)" xlink:href="#linear-gradient"/><linearGradient id="linear-gradient-27" x1="295.1" y1="10.94" x2="298.02" y2="6.17" gradientTransform="matrix(-0.99, 0.13, 0.13, 0.99, 386.78, -8.55)" xlink:href="#linear-gradient"/><linearGradient id="linear-gradient-28" x1="220.36" y1="118.04" x2="229.73" y2="118.04" gradientTransform="matrix(-0.95, -0.31, -0.31, 0.95, 343.28, 13.18)" xlink:href="#linear-gradient"/><linearGradient id="linear-gradient-29" x1="220.84" y1="126.98" x2="232.1" y2="108.61" gradientTransform="matrix(-0.95, -0.31, -0.31, 0.95, 343.28, 13.18)" xlink:href="#linear-gradient"/><linearGradient id="linear-gradient-30" x1="353.38" y1="49.5" x2="352.5" y2="50.11" gradientTransform="matrix(-1, 0, 0, 1, 370.52, 0)" xlink:href="#linear-gradient"/><linearGradient id="linear-gradient-31" x1="337.89" y1="65.54" x2="367.95" y2="65.54" gradientTransform="matrix(-1, 0, 0, 1, 370.52, 0)" gradientUnits="userSpaceOnUse"><stop offset="0" stop-color="#34239b"/><stop offset="0.99" stop-color="#3d2386"/></linearGradient><linearGradient id="linear-gradient-32" x1="206.93" y1="-174.43" x2="211.1" y2="-174.43" gradientTransform="matrix(0.5, -0.87, -0.87, -0.5, -235.11, 144.22)" gradientUnits="userSpaceOnUse"><stop offset="0" stop-color="#dadae8"/><stop offset="0.54" stop-color="#bdbdd1"/><stop offset="1" stop-color="#84849b"/></linearGradient><linearGradient id="linear-gradient-33" x1="353.06" y1="49.02" x2="352.18" y2="49.63" gradientTransform="matrix(-1, 0, 0, 1, 370.52, 0)" xlink:href="#linear-gradient"/><linearGradient id="linear-gradient-34" x1="353.09" y1="49.36" x2="352.17" y2="50" gradientTransform="matrix(-1, 0, 0, 1, 370.52, 0)" xlink:href="#linear-gradient"/><linearGradient id="linear-gradient-35" x1="353.06" y1="49.75" x2="352.36" y2="50.24" gradientTransform="matrix(-1, 0, 0, 1, 370.52, 0)" xlink:href="#linear-gradient"/><linearGradient id="linear-gradient-36" x1="353.04" y1="50.05" x2="352.56" y2="50.39" gradientTransform="matrix(-1, 0, 0, 1, 370.52, 0)" xlink:href="#linear-gradient"/><linearGradient id="linear-gradient-37" x1="348.78" y1="52.01" x2="345.17" y2="54.54" gradientTransform="matrix(-1, 0, 0, 1, 370.52, 0)" xlink:href="#linear-gradient"/><linearGradient id="linear-gradient-38" x1="346.32" y1="53.84" x2="348.41" y2="53.84" gradientTransform="matrix(-1, 0, 0, 1, 370.52, 0)" xlink:href="#linear-gradient"/><linearGradient id="linear-gradient-39" x1="334.02" y1="45.26" x2="341.05" y2="45.26" gradientTransform="matrix(-1, -0.03, -0.03, 1, 367.28, 8.75)" xlink:href="#linear-gradient"/><linearGradient id="linear-gradient-40" x1="335.41" y1="45.33" x2="336.99" y2="45.33" gradientTransform="matrix(-1, -0.03, -0.03, 1, 367.28, 8.75)" xlink:href="#linear-gradient"/><linearGradient id="linear-gradient-41" x1="338.26" y1="51.03" x2="336.95" y2="46.59" gradientTransform="matrix(-1, -0.03, -0.03, 1, 367.28, 8.75)" xlink:href="#linear-gradient"/><linearGradient id="linear-gradient-42" x1="336.25" y1="47.65" x2="338.33" y2="47.65" gradientTransform="matrix(-1, -0.03, -0.03, 1, 367.28, 8.75)" xlink:href="#linear-gradient"/><linearGradient id="linear-gradient-43" x1="337.89" y1="67.33" x2="356.14" y2="67.33" xlink:href="#linear-gradient-31"/><linearGradient id="linear-gradient-44" x1="343.98" y1="64.13" x2="366.58" y2="64.13" xlink:href="#linear-gradient-31"/></defs><title>Article1</title><g class="cls-1"><g id="Capa_2" data-name="Capa 2"><g id="Layer_1" data-name="Layer 1"><g class="cls-1"><polygon class="cls-2" points="26.48 13.51 26.34 59.66 31.43 62.59 31.56 16.44 26.48 13.51"/><polygon class="cls-3" points="31.43 62.59 55.07 48.9 55.07 2.91 31.56 16.44 31.43 62.59"/><polygon class="cls-4" points="31.56 16.44 55.07 2.91 54.54 2.53 53.97 2.91 49.93 0.59 49.92 0 26.48 13.51 31.56 16.44"/><polygon class="cls-5" points="27.76 13.51 31.8 15.83 53.97 2.91 49.93 0.59 27.76 13.51"/></g><polygon class="cls-3" points="27.64 57.79 30.26 59.31 30.26 20.03 27.64 18.52 27.64 57.79"/><polygon class="cls-6" points="34.47 32.56 34.55 62.74 52.23 52.54 52.14 22.36 34.47 32.56"/><polygon class="cls-7" points="33.24 32.64 33.32 62.83 40.79 67.17 40.71 36.98 33.24 32.64"/><g class="cls-1"><path class="cls-5" d="M52.1,23,34.88,32.87,41,36.39l17.21-9.91A10.93,10.93,0,0,1,54.67,25,7.19,7.19,0,0,1,52.1,23Z"/></g><polygon class="cls-8" points="59.07 26.38 58.48 26.04 40.81 36.25 34.47 32.56 52.14 22.36 51.6 22.04 33.24 32.64 40.71 36.98 59.07 26.38"/><polygon class="cls-8" points="40.71 36.98 40.79 67.17 59.15 56.57 59.07 26.38 40.71 36.98"/><polygon class="cls-7" points="41.69 65.62 58.26 56.05 58.18 27.93 41.6 37.5 41.69 65.62"/><polygon class="cls-8" points="42.87 63.56 57.06 55.36 56.99 30 42.8 38.19 42.87 63.56"/><ellipse class="cls-9" cx="98.93" cy="80.37" rx="4.69" ry="2.71"/><path class="cls-10" d="M94.8,79.66c.14.43,3.11,2.51,3.46,2,.16-.22-.07-.86-.51-1.52a8.53,8.53,0,0,0-2.36-2,1.83,1.83,0,0,0-.6,1A.83.83,0,0,0,94.8,79.66Z"/><path class="cls-10" d="M99.18,80.92c2.64,1.61,3.13,1.42,3.46,1.08a.78.78,0,0,0-.21-1.09c-.5-.48-1.72-1.45-1.72-1.45-1.06-.85-1.76-.46-2.12-.1l-.1.1C98.16,79.84,98.53,80.52,99.18,80.92Z"/><polygon class="cls-11" points="75.33 84.49 43.31 65.88 64.99 53.36 97.02 71.97 75.33 84.49"/><polygon class="cls-12" points="74.49 85.75 42.47 67.13 42.43 56.53 74.46 75.14 74.49 85.75"/><g class="cls-1"><path class="cls-5" d="M96.36,71.64,75.26,83.86l0-8.61L96.33,63a13.12,13.12,0,0,0-.59,4.59C95.76,70.68,96.36,71.64,96.36,71.64Z"/></g><polygon class="cls-12" points="96.99 62.13 96.99 62.97 75.31 75.48 75.33 84.49 97.02 71.97 97.02 72.74 74.49 85.75 74.46 75.14 96.99 62.13"/><polygon class="cls-11" points="74.46 75.14 42.43 56.53 64.97 43.52 96.99 62.13 74.46 75.14"/><polygon class="cls-13" points="44.63 56.53 64.96 44.79 94.8 62.13 74.46 73.87 44.63 56.53"/><polygon class="cls-14" points="47.55 56.54 64.96 46.48 91.87 62.13 74.46 72.18 47.55 56.54"/><g class="cls-1"><polygon class="cls-15" points="75.32 74.52 40.83 54.73 40.83 49.68 75.32 69.46 75.32 74.52"/><polygon class="cls-16" points="40.83 49.68 65.18 35.91 99.49 55.72 75.32 69.46 40.83 49.68"/><polygon class="cls-17" points="75.32 69.46 99.49 55.71 99.49 56.3 98.93 56.64 98.93 60.42 99.49 60.14 99.49 60.77 75.32 74.52 75.32 69.46"/><polygon class="cls-18" points="75.88 73.56 75.88 72.69 75.87 69.78 98.93 56.64 98.93 60.42 75.88 73.56"/><polygon class="cls-5" points="75.88 73.56 75.87 69.78 98.93 56.64 98.93 60.42 75.88 73.56"/></g><polygon class="cls-18" points="99.49 60.14 98.93 59.79 98.93 60.42 99.49 60.14"/><polygon class="cls-19" points="46.88 50.73 52.59 54.07 71.8 42.96 65.96 39.59 46.88 50.73"/><path class="cls-19" d="M75.5,63.12l-.08,0L58,53a.16.16,0,0,1-.08-.14.18.18,0,0,1,.08-.14l11.73-6.78a.15.15,0,0,1,.16,0L87.26,56a.17.17,0,0,1,.08.14.16.16,0,0,1-.08.14L75.58,63.1ZM58.4,52.85l17.1,9.92,11.36-6.59L69.8,46.26Z"/><g class="cls-1"><polygon class="cls-20" points="79.09 69.69 46.2 50.83 46.24 44.89 79.13 63.76 79.09 69.69"/><polygon class="cls-3" points="46.24 44.89 68.95 31.52 101.85 50.39 79.13 63.76 46.24 44.89"/><polygon class="cls-21" points="79.09 69.69 79.13 63.75 101.87 50.38 101.86 51.19 101.38 51.45 101.35 56.16 101.83 55.91 101.83 56.57 79.09 69.69"/><polygon class="cls-22" points="79.63 68.77 79.63 67.79 79.66 64.06 101.38 51.45 101.35 56.16 79.63 68.77"/><polygon class="cls-5" points="79.63 68.74 79.66 64.03 101.38 51.42 101.35 56.13 79.63 68.74"/></g><polygon class="cls-23" points="76.14 67.82 76.18 62.34 78.26 63.55 78.22 69.03 76.14 67.82"/><polygon class="cls-23" points="72.55 65.75 72.58 60.27 74.67 61.47 74.63 66.95 72.55 65.75"/><polygon class="cls-23" points="68.95 63.67 68.99 58.2 71.08 59.4 71.04 64.88 68.95 63.67"/><polygon class="cls-23" points="65.36 61.6 65.4 56.12 67.49 57.33 67.45 62.8 65.36 61.6"/><polygon class="cls-23" points="61.77 59.53 61.81 54.05 63.9 55.25 63.85 60.73 61.77 59.53"/><polygon class="cls-23" points="58.18 57.45 58.22 51.98 60.3 53.18 60.26 58.66 58.18 57.45"/><polygon class="cls-23" points="64.49 53.85 66.5 55.04 87.19 43.13 85.14 41.94 64.49 53.85"/><polygon class="cls-23" points="68.7 56.24 70.71 57.43 91.4 45.51 89.35 44.32 68.7 56.24"/><polygon class="cls-23" points="72.87 58.57 74.87 59.77 95.56 47.84 93.51 46.65 72.87 58.57"/><polygon class="cls-23" points="77.25 61.28 79.26 62.48 99.95 50.56 97.9 49.37 77.25 61.28"/><path class="cls-9" d="M90.64,54.25a1.71,1.71,0,0,0-.3,2.9v.69l-.28.16.24,4.55.58.35s.16,1.18.3,1.94l.6.32.09.81s.46,2.09,1.08,3.92S94.07,73,94.07,73l.39.49-.09.81.39,5.2s-.1-.4.44-1l.54-2.15.62-1.12-.8-4.69-2.15-8.92-1.73-5.74Z"/><path class="cls-24" d="M55.61,68.86c-.26.14-2.46,1.56-2,2.28s3.08-.64,3.58-1.09C58.19,69.2,57.09,68,55.61,68.86Z"/><path class="cls-24" d="M51.6,56.24c-.13.48-2.3,1.53-2.53,1.66s-1.74.44-1.92-.14.83-1.51,1.7-2A3.59,3.59,0,0,1,50.77,55C51,55.1,51.86,55.25,51.6,56.24Z"/><path class="cls-25" d="M59.24,35.06a3.74,3.74,0,0,0-.26.67,5.67,5.67,0,0,1,.26-.66Z"/><path class="cls-26" d="M58.76,36.61c.07-.31.13-.61.22-.88A6,6,0,0,0,58.76,36.61Z"/><path class="cls-27" d="M59.24,35.07a5.67,5.67,0,0,0-.26.66c-.09.27-.15.57-.22.88a4.6,4.6,0,0,0,.38,2.66c.58,1.26.48,1,.42,3.06v.22a5.82,5.82,0,0,0,1.19-3A7.62,7.62,0,0,0,59.24,35.07Z"/><g class="cls-28"><path class="cls-29" d="M54.84,49.82l-1.28-.73L53,48.83a12.6,12.6,0,0,1,6.15-1.23c2.88.39,7.28,4,7.28,4,.37.3.77.75.09,1.22s-3.24,1.84-3.24,1.84l-6-3.43.64-.68a13.69,13.69,0,0,0-3-.72Z"/><path class="cls-29" d="M58.82,69.24l0-3.21.89-.47v-5.1l1.57-1V53.53l2,1.13v6l-1.77.92v4.95l-.89.6a24.5,24.5,0,0,1-.31,2.6,2.52,2.52,0,0,1-.91,1.17c-.77.6-1.85.35-1.9,0S58.82,69.24,58.82,69.24Z"/><path class="cls-29" d="M52.3,54.31,53,48.83l1.85,1s.51,1.42-1,5.37l-1.64,1-1.31-.82Z"/></g><path class="cls-12" d="M67.52,39.86a3.49,3.49,0,0,0,.31-1.4,3.12,3.12,0,0,0-.55-1.83L64.8,35.25s-3.55-1.88-3.69-2a.74.74,0,0,0-.64.11h0l0,0-.17.11a6,6,0,0,1-.52,1.88A5.55,5.55,0,0,0,59,37a3.77,3.77,0,0,0,.16,2.27c.58,1.26.48,1,.42,3.06v.22A9.59,9.59,0,0,1,58.71,46l.07.11c1.85,2.6,5.59,3.57,6.84,3.83l.43.08.7-.27.13,0S65.66,44,66.1,42.77C66.39,42,67.1,40.88,67.52,39.86Z"/><path class="cls-30" d="M66.88,49.68l-.13,0-.7.27-.43-.08a9,9,0,0,0,.22-1.82c0-.85-.39-4.19-.57-6a6.92,6.92,0,0,1,0-2c.08-.49.4-1.81.86-1.88s.88.6,1.44,1.63c-.42,1-1.13,2.11-1.42,2.91C65.66,44,66.88,49.68,66.88,49.68Z"/><path class="cls-5" d="M66.11,52.3c-.93.58-8.53,4.33-8.64,5-.06.33.28,1.28.56,3.64a27.2,27.2,0,0,1-.94,8.59l-.46-.24-1-.55S54.11,59.59,54,57.5a3.84,3.84,0,0,1,1.56-3.61c.33-.26,2.7-2.64,3.28-3.23l.14-.13s-1.74-.94-2.44-1.25c-2-.89-4.79-2.41-5.16-2.23-.16.08.49.87.5,2.16,0,2.68-.44,6.9-.44,6.9L51,55.94l-1.45-.58s-1.87-10.2-1.37-11.78,3.25-.72,4.59,0c.55.28,5.5,2.29,5.5,2.29l.48.22c2,2.85,6.29,3.74,7.13,3.89l.14,0,.7-.27.09,0S67,51.72,66.11,52.3Z"/><path class="cls-31" d="M53.61,44.23c0-.08-.35.15-.4,0s.63-.57.63-.57h0a28.53,28.53,0,0,0,4-2.37c.5-.53.54-2.88.9-4.72a4.59,4.59,0,0,0,.37,2.66c.11.23.19.41.26.57.29.68.21.83.16,2.49v.22a5.08,5.08,0,0,1-1.23,1.1,9,9,0,0,1-3,.77,5.45,5.45,0,0,0-.39.52c-.11.21-.24.28-.3.25s0-.4,0-.5-.26.07-.42.31-.39.54-.51.49.27-.72.27-.79-.52,1-.7.79.38-.82.43-1-.37.48-.53.39S53.58,44.31,53.61,44.23Z"/><path class="cls-32" d="M59.56,42.33v.22a5.08,5.08,0,0,1-1.23,1.1,9,9,0,0,1-3,.77l-.15-.08c2.87-.62,3.9-2.16,4.11-2.57a7.09,7.09,0,0,0,.16-1.93C59.69,40.52,59.61,40.67,59.56,42.33Z"/><g class="cls-1"><polygon class="cls-33" points="58.83 48.28 58.83 48.76 62 46.91 62.03 46.44 58.83 48.28"/></g><path class="cls-34" d="M57.28,47.16a1.52,1.52,0,0,0-.37-.11,1.15,1.15,0,0,0-.65,0l3.09-1.79a4,4,0,0,1,1.61.28,3.21,3.21,0,0,1,1.07.88l-3.2,1.84A6.05,6.05,0,0,0,57.28,47.16Z"/><path class="cls-35" d="M56.28,47.29l0-.22a1.42,1.42,0,0,1,.65,0,1.52,1.52,0,0,1,.37.11,6.05,6.05,0,0,1,1.55,1.12v.48Z"/><path class="cls-36" d="M61.88,46.12a8.89,8.89,0,0,0-1.25-.79,1.76,1.76,0,0,0-1.28,0l-3.09,1.79a2,2,0,0,1,1.32.18A3.34,3.34,0,0,1,58.7,48Z"/><path class="cls-37" d="M56.26,47.07A6.08,6.08,0,0,0,55,45.61a1.67,1.67,0,0,0-1.06-.41l3.18-1.84a3.19,3.19,0,0,1,1.13.69,13.28,13.28,0,0,1,1,1.29Z"/><path class="cls-38" d="M58.33,47.42l3.07-1.77a2,2,0,0,0-2-.37l-3.1,1.79A2.54,2.54,0,0,1,58.33,47.42Z"/><path class="cls-39" d="M53.8,45.42l.23-.13a1.92,1.92,0,0,1,1.15.57,6.73,6.73,0,0,1,1.08,1.21,10.32,10.32,0,0,0-1.56-1.4A1.29,1.29,0,0,0,53.8,45.42Z"/><path class="cls-40" d="M53.8,45.86v-.44a1.29,1.29,0,0,1,.9.25,10.32,10.32,0,0,1,1.56,1.4l0,.22Z"/><path class="cls-41" d="M55.18,45.86A1.92,1.92,0,0,0,54,45.29h-.14l.11-.07s.44-.1,1.25.58a4.28,4.28,0,0,1,.78.85c.15.25.23.42.23.42A6.73,6.73,0,0,0,55.18,45.86Z"/><path class="cls-35" d="M56,46.65a3.85,3.85,0,0,0-1.8-1.56l3.16-1.82s1.85,1.14,1.86,2.07l-3,1.73A2.42,2.42,0,0,0,56,46.65Z"/><path class="cls-35" d="M56,46.65a2.42,2.42,0,0,1,.23.42S56.18,46.9,56,46.65Z"/><g class="cls-1"><polygon class="cls-42" points="58.83 48.83 58.89 48.8 53.74 45.82 53.67 45.85 58.83 48.83"/><polygon class="cls-43" points="58.83 48.83 58.83 48.9 58.89 48.86 58.89 48.8 58.83 48.83"/><polygon class="cls-44" points="53.67 45.85 53.67 45.92 58.83 48.9 58.83 48.83 53.67 45.85"/></g><polygon class="cls-42" points="58.89 48.8 58.89 48.8 62.1 46.95 62 46.89 62 46.91 58.83 48.76 58.89 48.8"/><path class="cls-43" d="M58.88,48.81,62.1,47V47l-.44.25-2.77,1.6A.09.09,0,0,1,58.88,48.81Z"/><polygon class="cls-42" points="53.72 45.83 53.8 45.78 53.8 45.86 53.72 45.83"/><polygon class="cls-40" points="55.97 47.09 55.97 47.15 56.42 47.41 56.43 47.35 55.97 47.09"/><polygon class="cls-42" points="55.97 47.18 55.97 47.22 56.41 47.48 56.42 47.44 55.97 47.18"/><polygon class="cls-44" points="55.98 47.24 55.98 47.28 56.42 47.54 56.42 47.5 55.98 47.24"/><path class="cls-45" d="M56.23,46.39a3.37,3.37,0,0,0-.8-.92,3.43,3.43,0,0,0-.75-.49h0a3.56,3.56,0,0,1,1.75,1.84h0A2,2,0,0,0,56.23,46.39Z"/><path class="cls-45" d="M56.36,46.31a3.53,3.53,0,0,0-.8-.92,3.94,3.94,0,0,0-.75-.49h0a3.56,3.56,0,0,1,1.75,1.84h0A2.19,2.19,0,0,0,56.36,46.31Z"/><path class="cls-45" d="M56.51,46.22a3.72,3.72,0,0,0-.8-.92,2.92,2.92,0,0,0-.76-.48h0a3.6,3.6,0,0,1,1.75,1.84h0A2.48,2.48,0,0,0,56.51,46.22Z"/><path class="cls-45" d="M56.65,46.14a3.84,3.84,0,0,0-1.55-1.41h0a3.64,3.64,0,0,1,1.75,1.84h0A2.11,2.11,0,0,0,56.65,46.14Z"/><path class="cls-45" d="M56.8,46.05a3.55,3.55,0,0,0-.8-.92,3.94,3.94,0,0,0-.75-.49h0A3.6,3.6,0,0,1,57,46.49h0A2,2,0,0,0,56.8,46.05Z"/><path class="cls-45" d="M57,46a3.77,3.77,0,0,0-1.56-1.41h0a3.68,3.68,0,0,1,1.75,1.84h0A3.49,3.49,0,0,0,57,46Z"/><path class="cls-45" d="M57.09,45.87a3.53,3.53,0,0,0-.8-.92,3.61,3.61,0,0,0-.75-.48h0a3.6,3.6,0,0,1,1.74,1.83h0A2.48,2.48,0,0,0,57.09,45.87Z"/><path class="cls-45" d="M57.24,45.79a3.55,3.55,0,0,0-.8-.92,3.13,3.13,0,0,0-.76-.49h0a3.6,3.6,0,0,1,1.75,1.84h0A2.11,2.11,0,0,0,57.24,45.79Z"/><path class="cls-45" d="M57.39,45.7a3.39,3.39,0,0,0-.81-.92,3.36,3.36,0,0,0-.75-.49h0a3.64,3.64,0,0,1,1.75,1.84h0A2.94,2.94,0,0,0,57.39,45.7Z"/><path class="cls-45" d="M57.53,45.61a3.37,3.37,0,0,0-.8-.92A3.94,3.94,0,0,0,56,44.2h0a3.59,3.59,0,0,1,1.74,1.84h0A2.19,2.19,0,0,0,57.53,45.61Z"/><path class="cls-45" d="M57.68,45.52a3.72,3.72,0,0,0-.8-.92,2.92,2.92,0,0,0-.76-.48h0A3.56,3.56,0,0,1,57.87,46h0A2.48,2.48,0,0,0,57.68,45.52Z"/><path class="cls-45" d="M57.83,45.43a3.49,3.49,0,0,0-.81-.91,3,3,0,0,0-.75-.49h0A3.64,3.64,0,0,1,58,45.88h0A4.68,4.68,0,0,0,57.83,45.43Z"/><path class="cls-45" d="M58,45.35a3.37,3.37,0,0,0-.8-.92,3.94,3.94,0,0,0-.75-.49h0a3.59,3.59,0,0,1,1.74,1.84h0A2.19,2.19,0,0,0,58,45.35Z"/><path class="cls-45" d="M58.12,45.26a3.77,3.77,0,0,0-1.56-1.41h0a3.6,3.6,0,0,1,1.75,1.84h0A2.19,2.19,0,0,0,58.12,45.26Z"/><path class="cls-45" d="M58.26,45.17a3.51,3.51,0,0,0-.8-.92,3,3,0,0,0-.75-.48h0a3.64,3.64,0,0,1,1.75,1.84h0A2.48,2.48,0,0,0,58.26,45.17Z"/><path class="cls-45" d="M58.41,45.09a3.37,3.37,0,0,0-.8-.92,3.13,3.13,0,0,0-.76-.49h0a3.56,3.56,0,0,1,1.75,1.84h0A2,2,0,0,0,58.41,45.09Z"/><path class="cls-45" d="M58.56,45A3.77,3.77,0,0,0,57,43.59h0a3.6,3.6,0,0,1,1.75,1.84h0A2.55,2.55,0,0,0,58.56,45Z"/><path class="cls-45" d="M58.7,44.91a3.37,3.37,0,0,0-.8-.92,3.62,3.62,0,0,0-.75-.49h0a3.59,3.59,0,0,1,1.74,1.84h0A2.19,2.19,0,0,0,58.7,44.91Z"/><path class="cls-45" d="M58.36,47.18h0a1.85,1.85,0,0,0-1.17-.42,2.82,2.82,0,0,0-.44,0l0,0a2,2,0,0,1,.46,0,1.89,1.89,0,0,1,1.17.41Z"/><path class="cls-45" d="M58.52,47.11h0a1.67,1.67,0,0,0-1.11-.47,2.76,2.76,0,0,0-.44,0h0a2.08,2.08,0,0,1,.46,0,1.68,1.68,0,0,1,1.1.46Z"/><path class="cls-45" d="M58.71,47h0a1.68,1.68,0,0,0-1.11-.46,2,2,0,0,0-.44,0h0a2.08,2.08,0,0,1,.46,0,1.7,1.7,0,0,1,1.11.46Z"/><path class="cls-45" d="M58.91,46.89h0a1.65,1.65,0,0,0-1.11-.46,3,3,0,0,0-.44,0l0,0a2,2,0,0,1,.45,0,1.68,1.68,0,0,1,1.11.46Z"/><path class="cls-45" d="M59.1,46.78h0A1.72,1.72,0,0,0,58,46.3l-.44,0h0a3,3,0,0,1,.46,0,1.68,1.68,0,0,1,1.1.47Z"/><path class="cls-45" d="M59.29,46.67h0a1.7,1.7,0,0,0-1.11-.47,2.62,2.62,0,0,0-.43,0h0a3,3,0,0,1,.46,0,1.65,1.65,0,0,1,1.11.47Z"/><path class="cls-45" d="M59.49,46.55h0a1.72,1.72,0,0,0-1.12-.47,1.87,1.87,0,0,0-.43,0h0a2.9,2.9,0,0,1,.45,0,1.68,1.68,0,0,1,1.11.46Z"/><path class="cls-45" d="M59.68,46.44h0A1.7,1.7,0,0,0,58.57,46a2,2,0,0,0-.44,0h0a2.08,2.08,0,0,1,.46,0,1.66,1.66,0,0,1,1.1.46Z"/><path class="cls-45" d="M59.88,46.33h0a1.7,1.7,0,0,0-1.12-.46,1.84,1.84,0,0,0-.43,0h0a2.12,2.12,0,0,1,.46,0,1.63,1.63,0,0,1,1.11.46Z"/><path class="cls-45" d="M60.07,46.22h0A1.65,1.65,0,0,0,59,45.75a3,3,0,0,0-.44,0l0,0a2.08,2.08,0,0,1,.46,0,1.63,1.63,0,0,1,1.1.46Z"/><path class="cls-45" d="M60.26,46.1h0a1.7,1.7,0,0,0-1.11-.47,2.82,2.82,0,0,0-.44,0h0a3,3,0,0,1,.46,0,1.75,1.75,0,0,1,1.11.46Z"/><path class="cls-45" d="M60.46,46h0a1.72,1.72,0,0,0-1.11-.47,2.76,2.76,0,0,0-.44,0h0a3,3,0,0,1,.46,0,1.68,1.68,0,0,1,1.1.46Z"/><path class="cls-45" d="M60.65,45.88h0a1.67,1.67,0,0,0-1.11-.47,1.93,1.93,0,0,0-.44,0h0a2.08,2.08,0,0,1,.46,0,1.66,1.66,0,0,1,1.1.46Z"/><path class="cls-45" d="M60.83,45.77h0a1.7,1.7,0,0,0-1.11-.47l-.41,0h0a2.62,2.62,0,0,1,.43,0,1.72,1.72,0,0,1,1.11.47Z"/><path class="cls-46" d="M55.61,68.68a1.45,1.45,0,0,0,.6,1c.46.26.88-.24.88-.24Z"/><path class="cls-47" d="M49.58,55.36a1,1,0,0,0,.69,1,1.21,1.21,0,0,0,1.2-.3Z"/><path class="cls-48" d="M60.37,48a1,1,0,0,0,.52.37,1.85,1.85,0,0,0,.31.11,2,2,0,0,0,1.33-.17,6.66,6.66,0,0,0,3.36-.68l.27-.12A3.92,3.92,0,0,0,68.5,44.2a21.63,21.63,0,0,0-.09-4.77h0l-.09-.53a3.8,3.8,0,0,0-1-2.26c-1.18-.88-1.73,1.12-1.68,3.63,0,.19,0,.37,0,.55a13.19,13.19,0,0,0,.54,3.39,7.59,7.59,0,0,1-4.73,3c-.33-.15-.88-.42-.94-.29s.13.24.31.37h0l.41.24h0Z"/><path class="cls-49" d="M59.39,50.32a3.24,3.24,0,0,1-.51.34l.14-.13s-1.74-.94-2.44-1.25c-2-.89-4.79-2.41-5.16-2.23-.16.08.49.87.5,2.16,0,2.68-.44,6.9-.44,6.9L51,55.94a21.15,21.15,0,0,0,.31-3.62A38.85,38.85,0,0,0,51,46.77c-.23-1,1.57-.18,2.37.13A62.87,62.87,0,0,1,59.39,50.32Z"/><path class="cls-49" d="M66.11,52.3c-.93.58-8.53,4.33-8.64,5-.06.33.28,1.28.56,3.64a27.2,27.2,0,0,1-.94,8.59l-.46-.24a5.1,5.1,0,0,1,.1-.68,72.92,72.92,0,0,0,.57-7.67,37.88,37.88,0,0,0-.57-4.23c.05-.29,1-.77,1-.77,7.12-4,7.14-4,7.89-4.6a1.4,1.4,0,0,0,.3-1.32l.14,0,.7-.27.09,0S67,51.72,66.11,52.3Z"/><path class="cls-50" d="M60.89,48.38a1.85,1.85,0,0,0,.31.11,2,2,0,0,0,1.33-.17,6.66,6.66,0,0,0,3.36-.68l.27-.12A3.92,3.92,0,0,0,68.5,44.2a21.63,21.63,0,0,0-.09-4.77h0l-.09-.53-.38.43a25.92,25.92,0,0,1,.23,4.19c-.16.92-.15,2.27-1,2.82A11.89,11.89,0,0,1,60.89,48.38Z"/><path class="cls-12" d="M68.41,39.42h0a4.21,4.21,0,0,1-.49.3c-1,.53-2.3,1.08-2.3,1.08,0-.18,0-.36,0-.55,0-2.11.34-3.85,1.15-3.84a.92.92,0,0,1,.53.21A4.47,4.47,0,0,1,68.41,39.42Z"/><path class="cls-51" d="M68.41,39.42h0a4.21,4.21,0,0,1-.49.3A3.72,3.72,0,0,0,67.69,38c-.33-.85-.84-1.17-.94-1.58a.92.92,0,0,1,.53.21A4.47,4.47,0,0,1,68.41,39.42Z"/><path class="cls-52" d="M64.68,31.92c-.14-1-.65-.25-.65-.25a4.41,4.41,0,0,1-2.13-.08c-1-.43-1.31-.82-1.39-1a4.84,4.84,0,0,0,0,.76c.08,1.48.29,2.93,1.29,3.49a.92.92,0,0,0,.33.1A2.57,2.57,0,0,0,64.19,34a2.39,2.39,0,0,0,.34-.56l-.21-.67A1.11,1.11,0,0,0,64.68,31.92Z"/><path class="cls-53" d="M65.19,29.36a1.23,1.23,0,0,1-1-.09,1.89,1.89,0,0,1-1-.86.83.83,0,0,1,.3-.7,1.14,1.14,0,0,1,1.26-.18l.27.14A1.13,1.13,0,0,1,65.19,29.36Z"/><path class="cls-54" d="M65.19,29.36a1.23,1.23,0,0,1-1-.09c.3-.2.76-.59.76-1.06a1.4,1.4,0,0,0-.2-.68l.27.14A1.13,1.13,0,0,1,65.19,29.36Z"/><path class="cls-55" d="M64.32,36.13c-.58.57-2,.35-2.2-.33a1.8,1.8,0,0,1,0-.65,1.16,1.16,0,0,1,0-.18A2.57,2.57,0,0,0,64.19,34a5.15,5.15,0,0,1,.31,1.15A1.1,1.1,0,0,1,64.32,36.13Z"/><path class="cls-56" d="M64.5,35.19a2.32,2.32,0,0,1-2.42,0,1.16,1.16,0,0,1,0-.18A2.57,2.57,0,0,0,64.19,34,5.15,5.15,0,0,1,64.5,35.19Z"/><path class="cls-57" d="M65.47,32.4a2,2,0,0,1-.94,1.08l-.21-.67a1.11,1.11,0,0,0,.36-.89,1,1,0,0,0-.11-.37c-.2-.35-.54.12-.54.12a4.41,4.41,0,0,1-2.13-.08,2.62,2.62,0,0,1-1.39-1,.32.32,0,0,0,0-.06,1.56,1.56,0,0,1,.38-1.66c.77-.9,2.85-.9,3.92-.18a1.43,1.43,0,0,1,.42.39C66,30.12,65.58,31.84,65.47,32.4Z"/><path class="cls-58" d="M65.47,32.4a2,2,0,0,1-.94,1.08l-.21-.67a1.11,1.11,0,0,0,.36-.89,1,1,0,0,0-.11-.37,2.65,2.65,0,0,0,.79-.87c.21-.31,0-1.05-.15-1.56C66,30.12,65.58,31.84,65.47,32.4Z"/><path class="cls-59" d="M98.41,71.49a11.91,11.91,0,0,0-1.84,2.38,29.74,29.74,0,0,0-1.37,4.54l1.58,1,2.55-4.94Z"/><path class="cls-60" d="M100.63,45.32v3.87c.45.82,1,1.62,1.58,1.78,2.3.64,6.74-3.24,6.74-3.24l-.22-.16-1-.74s-3,1.7-3.83,1.7A1.35,1.35,0,0,1,102.7,48a33.83,33.83,0,0,1-1.08-3.23,3.34,3.34,0,0,1-1,.53Z"/><path class="cls-11" d="M100.64,41.61a25,25,0,0,1,1,3.18h0a3.48,3.48,0,0,1-1,.53v-.43s0-.59-.1-1.28-.13-1.46-.19-1.86a2.66,2.66,0,0,0-1.54-1.6A2.36,2.36,0,0,1,100.64,41.61Z"/><path class="cls-61" d="M98.16,70.53l0-.08c0,.11,0,.21,0,.3.1.55.55,2.18,1,3.86l-.06.09Z"/><path class="cls-61" d="M91.6,58.33c.16,1.36,2.65,10.06,3.2,11.36s.45,3.9,1,5.7,3.12,5,3.12,5l.32-.22,1.35-.94s-.7-2.37-1.33-4.6l-.06.09-1-4.17,0-.08-.06-.32c-.49-2.93-1.71-11-1.56-11.69,0-.08.06,0,.13.08h0a47.58,47.58,0,0,1,2.2,8.15,16,16,0,0,1-.7,3.75v0c0,.11,0,.21,0,.3s.12.51.22.93c.2.77.5,1.83.81,2.93.39-.66,2.72-4.61,3-6.77.36-2.35-.19-5.9-.93-9.15a29.38,29.38,0,0,1-.76-6c-.12.06-1,.48-3.36,1.94a17.26,17.26,0,0,1-4.67,1.89c-.56.14-.91.2-.91.2l0,0A6,6,0,0,0,91.6,58.33Z"/><path class="cls-11" d="M91.14,47.48c.27,1.21.09,8.63.52,9.19l0,0a2.21,2.21,0,0,0,1.07.14A20.48,20.48,0,0,0,97,55.71c3.19-1.06,3.51-2,3.63-2.08,0-.63,0-2.21,0-2.21V44.89s0-.59-.1-1.28-.13-1.46-.19-1.86a2.63,2.63,0,0,0-1.54-1.6.78.78,0,0,0-.65,0l-.87.49-3.41,1.95-.74.43-1.36.77-.35.19C91,44.22,90.85,46.26,91.14,47.48Z"/><path class="cls-62" d="M91.14,47.48c.27,1.21.09,8.63.52,9.19l0,0s.39-.07,1-.23c0-.24,0-.64,0-1.31.08-1.49-.17-7.4-.37-9l-.2-1.59-.39-.79-.35.19C91,44.22,90.85,46.26,91.14,47.48Z"/><path class="cls-63" d="M100.6,79.21s.45.8-.16,1.16a2,2,0,0,1-1.51,0Z"/><path class="cls-64" d="M96.78,79.46a.65.65,0,0,1-.72.21,1.47,1.47,0,0,1-.86-1.26Z"/><path class="cls-65" d="M93.13,43a7.26,7.26,0,0,0,3.18-.27,2.38,2.38,0,0,0,1-2.11l-3.41,1.95Z"/><path class="cls-66" d="M94.34,40.79v1.53a1.46,1.46,0,0,0,1.84.5c.36-.18.44-.7.45-1.16,0-.18,0-.34,0-.48l-.07,0A2.18,2.18,0,0,1,94.34,40.79Z"/><path class="cls-67" d="M94.34,40.79v1.35a3.2,3.2,0,0,0,2.29-.48c0-.18,0-.34,0-.48l-.07,0A2.18,2.18,0,0,1,94.34,40.79Z"/><path class="cls-68" d="M100.63,45.32v3.87c.45.82,1,1.62,1.58,1.78,2.3.64,6.74-3.24,6.74-3.24l-.22-.16a18.72,18.72,0,0,1-2.73,1.8c-1,.44-2,1.13-3.11,1s-1.65-1.27-2-2.46a13.84,13.84,0,0,1-.29-2.6Z"/><path class="cls-69" d="M108.9,45.33a2.65,2.65,0,0,1,0,2.4h-.08s0-.77,0-1.32Z"/><path class="cls-70" d="M91.6,58.33c.16,1.36,2.65,10.06,3.2,11.36s.45,3.9,1,5.7,3.12,5,3.12,5l.32-.22a14.2,14.2,0,0,1-1.73-2.74A15.17,15.17,0,0,1,96,72.94a28.29,28.29,0,0,0-.65-4.54c-.35-1.38-2.23-5.59-2.46-7a15.79,15.79,0,0,1-.3-3.29c0-.71,0-1.26,0-1.61-.56.14-.91.2-.91.2l0,0A6,6,0,0,0,91.6,58.33Z"/><path class="cls-70" d="M96.56,58l.14.52h0a47.58,47.58,0,0,1,2.2,8.15,16,16,0,0,1-.7,3.75l.26,1.26a28,28,0,0,0,1-4.89,24.56,24.56,0,0,0-1.33-6.22A6.92,6.92,0,0,0,96.56,58Z"/><g class="cls-1"><path class="cls-71" d="M107,44.74v4a.06.06,0,0,0,.09,0l1.77-1a.17.17,0,0,0,.08-.15v-4s0-.07-.08,0l-1.77,1A.17.17,0,0,0,107,44.74Z"/><path class="cls-72" d="M106.87,44.69H107l1.77-1h.06l.09,0h-.06l-1.77,1a.09.09,0,0,0-.06.06h0a.08.08,0,0,0,0,0h0a.08.08,0,0,0,0,0v4h0l0,0-.09,0v0h0v-4Z"/></g><path class="cls-72" d="M108.26,44.85a.15.15,0,0,0-.25-.14.57.57,0,0,0-.25.42c0,.16.12.23.25.15A.57.57,0,0,0,108.26,44.85Z"/><path class="cls-71" d="M107.9,45.23l.07,0a.47.47,0,0,0,.2-.36s0-.09,0-.09a.12.12,0,0,0-.07,0,.46.46,0,0,0-.2.35S107.85,45.23,107.9,45.23Z"/><path class="cls-73" d="M107,47.34v1.41a.06.06,0,0,0,.09,0l1.77-1a.17.17,0,0,0,.08-.15V45.06Z"/><path class="cls-74" d="M109,44.88a1.73,1.73,0,0,0-.8.85c0,.17.58-.17.73-.34S109.15,44.86,109,44.88Z"/><path class="cls-75" d="M109,45.43c.13,0,.14.22-.07.43s-.75.6-.84.51S108.42,45.57,109,45.43Z"/><path class="cls-76" d="M108.11,46.84c-.1-.12.52-.72.79-.94s.39.11,0,.47S108.19,46.94,108.11,46.84Z"/><path class="cls-77" d="M108.35,47.2c-.09-.12.31-.55.55-.68s.25.19,0,.42S108.42,47.3,108.35,47.2Z"/><path class="cls-78" d="M92.83,38.18a.22.22,0,0,1,.16,0c.18.06.3.32.3.32l.16,1c.08.07.15.1.2.06.37-.26.13-1.18.35-2a.84.84,0,0,1,0-.17c.21-.61.57-.68,1.42-.54a1.75,1.75,0,0,0,1.66-.38.44.44,0,0,0,.09-.34c0-.73-.73-1.06-1.92-1.14a2.64,2.64,0,0,0-2.13.74,2.09,2.09,0,0,0-.43.62A3.18,3.18,0,0,0,92.83,38.18Z"/><path class="cls-78" d="M93,38.18a7.35,7.35,0,0,0,.28,1.07,5,5,0,0,1-.44-1.07A.22.22,0,0,1,93,38.18Z"/><path class="cls-78" d="M93.29,38.5l.16,1a1.25,1.25,0,0,1-.18-.24A7.35,7.35,0,0,1,93,38.18C93.17,38.24,93.29,38.5,93.29,38.5Z"/><path class="cls-79" d="M93.52,39.92a2.51,2.51,0,0,0,1,1.21,2.4,2.4,0,0,0,.39.2,2,2,0,0,0,1.85,0l.06-.06c1-.85.7-2.22.6-3.55a3.36,3.36,0,0,0-.29-1.18,1.75,1.75,0,0,1-1.66.38c-.91-.14-1.25-.07-1.46.67a.06.06,0,0,0,0,0c-.22.78,0,1.7-.35,2-.05,0-.12,0-.2-.06l-.16-1s-.12-.26-.3-.32a.22.22,0,0,0-.16,0,.53.53,0,0,0-.22.21A1,1,0,0,0,93.52,39.92Z"/><path class="cls-80" d="M92.83,38.18a.22.22,0,0,1,.16,0c.18.06.3.32.3.32l.16,1c.08.07.15.1.2.06.37-.26.13-1.18.35-2a.84.84,0,0,1,0-.17,2.12,2.12,0,0,1-.92-.95,1,1,0,0,1,0-.71,2.09,2.09,0,0,0-.43.62A3.18,3.18,0,0,0,92.83,38.18Z"/><path class="cls-81" d="M93.52,39.92a2.51,2.51,0,0,0,1,1.21,2.4,2.4,0,0,0,.39.2,6.32,6.32,0,0,1-.64-1.43A9.13,9.13,0,0,1,94,37.54a.06.06,0,0,0,0,0c-.22.78,0,1.7-.35,2-.05,0-.12,0-.2-.06l-.16-1s-.12-.26-.3-.32a.22.22,0,0,0-.16,0,.53.53,0,0,0-.22.21A1,1,0,0,0,93.52,39.92Z"/><path class="cls-82" d="M90,48.05a16.27,16.27,0,0,0,.16,5.46c.07.28.16.58.27.89a2,2,0,0,0,.08.22c.13.39.29.79.45,1.2,0,.09.07.17.1.25.27.65.55,1.29.82,1.85l.09.2q.13.32.27.57c.25.53.44.91.52,1.05a19.51,19.51,0,0,0,.75,2.31c.1.12.14.11.17,0a1.14,1.14,0,0,0,0-.25c0-.21-.06-.64.07-.48s.62,1.11.76,1-.41-1-.48-1.16.07-.23.23.06.73,1.11.94,1-.78-1.25-.73-1.38.16,0,.42.36.44.56.54.32c0-.08-.93-1.2-.78-1.41,0,0,.6.32.71.13s-1.17-.92-1.17-.92c-.19-.61-1-3.19-1.21-4.63a31.49,31.49,0,0,1-.29-6.38l-1.89.3Z"/><path class="cls-83" d="M90,48.05a16.27,16.27,0,0,0,.16,5.46c.07.28.16.58.27.89a2,2,0,0,0,.08.22c.13.39.29.79.45,1.2,0,.09.07.17.1.25.27.65.55,1.29.82,1.85l.09.2q.13.32.27.57c.25.53.44.91.52,1.05a19.51,19.51,0,0,0,.75,2.31c.1.12.14.11.17,0s-.18-.34-.28-.56a8.7,8.7,0,0,1-.27-1.8,48.43,48.43,0,0,1-2.5-7.65,10.79,10.79,0,0,1,.23-3.94Z"/><path class="cls-11" d="M89.91,48.43a1.09,1.09,0,0,0,1.07.42,5.9,5.9,0,0,0,2-.57c.2-1.92,0-3.86-1-4.2a1,1,0,0,0-.28,0C90.25,44.06,89.91,48.43,89.91,48.43Z"/><path class="cls-65" d="M89.91,48.43a1.09,1.09,0,0,0,1.07.42,10.86,10.86,0,0,1,.16-3.27A4.64,4.64,0,0,1,91.68,44C90.25,44.06,89.91,48.43,89.91,48.43Z"/><path class="cls-84" d="M33.24,32.56c0,.08-1.73,1.59-1.73,1.59V62.54l1.81-1Z"/><path class="cls-12" d="M59.49,35.81a1.64,1.64,0,0,1-.35-.52,4.36,4.36,0,0,1,1.18-1.81A9.05,9.05,0,0,1,60,34.86C59.66,35.76,59.49,35.81,59.49,35.81Z"/><path class="cls-85" d="M17.67,49s-.25.09-.26.61a5.18,5.18,0,0,0,.09,1l.15-.11Z"/><path class="cls-86" d="M18.51,52.41a12.16,12.16,0,0,0,2.57,1.76.63.63,0,0,0,.2.1c1.68.54,3.36-2.81,3.36-2.81s0-1,0-2.2c0-.82,0-1.71,0-2.36,0-1.64.53-2.06.53-2.06-.89.42-1.88,2.89-2.79,4.79-.26.54-.56,1.12-.83,1.69a29.31,29.31,0,0,1-2.73-1.63l-1.26.87,0,0S17.36,51.47,18.51,52.41Z"/><path class="cls-87" d="M18.51,52.41a12.16,12.16,0,0,0,2.57,1.76.63.63,0,0,0,.2.1c1.68.54,3.36-2.81,3.36-2.81s0-1,0-2.2c-.54,1.66-1.69,3.86-2.37,4.2s-2.4-.54-3.3-1.26a6.9,6.9,0,0,1-1.42-1.64l0,0S17.36,51.47,18.51,52.41Z"/><path class="cls-86" d="M24.58,56.37s1.42,2.91,6.75,3.84l.69.11s.49,0,.57-.35a.28.28,0,0,0,0-.09,36.62,36.62,0,0,1,0-5.64c0-.37.1-.72.16-1,.38-2,1.06-3.39.7-3.91-.72-1-7.3-5-8.32-4.45-.81.41-.6,2.82-.53,5.38S24.58,56.37,24.58,56.37Z"/><path class="cls-88" d="M2.56,66.46l1.37.94.54.37s2.22-.6,4.94-1.14,3.38-1.91,6.94-2.82,7.88-2.71,8.54-2.7a3.7,3.7,0,0,1,1.64.48,38.75,38.75,0,0,1-5.77,5.72c-2.66,2.24-7,6.15-7,6.15l.61.69.49.55s5.52-2.69,7.69-4.51c3-2.55,7.06-5.26,8.72-6.79A3.84,3.84,0,0,0,32.61,60c-.08.38-.57.35-.57.35l-.74-.12c-5.29-.94-6.7-3.83-6.7-3.83S15.76,60.4,11,62.6,2.56,66.46,2.56,66.46Z"/><path class="cls-89" d="M17.65,46.69v4.49a.15.15,0,0,0,.06.11L20.63,53,23,54.32s.07,0,.07,0v-4.5a.14.14,0,0,0-.07-.11L19.3,47.57l-1.59-.91S17.65,46.65,17.65,46.69Z"/><path class="cls-90" d="M23.16,49.59h0L21.1,48.41l-3.22-1.85h-.05l-.16.09h0l3.16,1.81L23,49.68l0,0h0v0h0v0h0v0h0v4.5h0l.17-.09h0V49.7h-.06Z"/><path class="cls-91" d="M18,49.41c.08.05.15,0,.15-.09a.36.36,0,0,0-.15-.27c-.09,0-.16,0-.16.09A.34.34,0,0,0,18,49.41Z"/><path class="cls-92" d="M17.65,46.69v4.49a.15.15,0,0,0,.06.11L20.63,53l-1.33-5.4-1.59-.91S17.65,46.65,17.65,46.69Z"/><path class="cls-93" d="M18.26,49.58c-.08.09-.4-.1-.59-.25s-.14-.33,0-.3S18.32,49.52,18.26,49.58Z"/><path class="cls-94" d="M18.29,49.91c-.05.07-.46-.07-.62-.22s-.18-.39,0-.32S18.36,49.83,18.29,49.91Z"/><path class="cls-95" d="M18.09,50.19a.66.66,0,0,1-.55-.28c0-.13,0-.23.23-.09S18.16,50.17,18.09,50.19Z"/><path class="cls-96" d="M17.92,50.35c0,.1-.33,0-.38-.24S17.89,50.19,17.92,50.35Z"/><path class="cls-97" d="M22.77,53s-.82,0-.82.07.65.26.65.26-.45,0-.49.09,0,0,.14.07a3.15,3.15,0,0,0,.81.09c.12.36.72.76.72.76l.42-.16,1.36-.54-1.4-.83a3.35,3.35,0,0,0-.38-.18h0c0-.05-.29-.58-.56-.64v.16l.13.32-.29-.1s-1-.09-1,0,.67.32.75.34c-.11,0-.95-.14-.95,0S22.77,53,22.77,53Z"/><path class="cls-98" d="M22.25,53.46a3.15,3.15,0,0,0,.81.09c.12.36.72.76.72.76l.42-.16a4.75,4.75,0,0,1-1.06-.69c-.17-.15-.74-.05-1-.07C22.1,53.4,22.13,53.43,22.25,53.46Z"/><path class="cls-99" d="M26.32,42.26a4.3,4.3,0,0,0,1.44,3.62,1.39,1.39,0,0,0,.55.27,1.52,1.52,0,0,0,.71,0,1.39,1.39,0,0,0,.52-.31,2.57,2.57,0,0,0,.62-.92s0-.18,0-.44l.26-.38a1.27,1.27,0,0,0,.24-1,.44.44,0,0,0-.13-.2c-.16-.15-.4-.07-.56.13a2.46,2.46,0,0,0-.45-1.06h0a.62.62,0,0,0-.62-.22c-.52.1-1.62.73-2.53.32C26.33,42.11,26.33,42.18,26.32,42.26Z"/><path class="cls-100" d="M29,46.11a1.39,1.39,0,0,0,.52-.31,2.57,2.57,0,0,0,.62-.92s0-.18,0-.44l.26-.38a1.27,1.27,0,0,0,.24-1,.44.44,0,0,0-.13-.2c-.16-.15-.4-.07-.56.13a2.46,2.46,0,0,0-.45-1.06,3.88,3.88,0,0,1,.39,2.71A2.76,2.76,0,0,1,29,46.11Z"/><path class="cls-101" d="M27.45,46.65s.19,1.35.51,1.56,1.57-1.12,1.75-1.31h0a4,4,0,0,0-.18-1.09,1.42,1.42,0,0,1-1.23.35,1.39,1.39,0,0,1-.55-.27l-.09.22Z"/><path class="cls-102" d="M27.67,46.1a2.76,2.76,0,0,0,2,.8h0a4,4,0,0,0-.18-1.09,1.42,1.42,0,0,1-1.23.35,1.39,1.39,0,0,1-.55-.27Z"/><path class="cls-103" d="M26,41.77a.42.42,0,0,0,.17.15.78.78,0,0,0,.2.11c.91.41,2-.22,2.53-.32s.91.54,1.08,1.29c.16-.2.4-.28.56-.13a.44.44,0,0,1,.13.2,1.27,1.27,0,0,1-.24,1l-.26.38c0,.26,0,.42,0,.44a3.36,3.36,0,0,0,0-4.41,2.29,2.29,0,0,0-.48-.42,3,3,0,0,0-3,.09C26.21,40.41,25.63,41.28,26,41.77Z"/><path class="cls-104" d="M26,41.77a.42.42,0,0,0,.17.15.78.78,0,0,0,.2.11c.91.41,2-.22,2.53-.32s.91.54,1.08,1.29c.16-.2.4-.28.56-.13a.44.44,0,0,1,.13.2,1.27,1.27,0,0,1-.24,1l-.26.38c0,.26,0,.42,0,.44a3.36,3.36,0,0,0,0-4.41,2.29,2.29,0,0,0-.48-.42c.08.87-.28,1.23-1.54,1.69A3.4,3.4,0,0,1,26,41.77Z"/><path class="cls-87" d="M31.33,60.21l.69.11s.49,0,.57-.35a.28.28,0,0,0,0-.09,36.62,36.62,0,0,1,0-5.64c0-.37.1-.72.16-1-.18-1-.31-1.64-.31-1.64A38.13,38.13,0,0,0,31.55,57C31.47,58.83,31.39,59.26,31.33,60.21Z"/><path class="cls-86" d="M23.78,54.31s5.19,4.91,7.79,4c2.42-.86,2.53-8.44,1.9-9l-.26-.19c-1.23-.79-2,.92-2.22,2.36-.3,2.13-.57,4.74-1,4.55a42.57,42.57,0,0,1-4.42-2.42l-1.38.56Z"/><path class="cls-87" d="M23.78,54.31s5.19,4.91,7.79,4c2.42-.86,2.53-8.44,1.9-9l-.26-.19a18.27,18.27,0,0,1,0,4.56c-.13,1.59-.75,3.24-1.5,3.76s-2.1,0-3.68-.7a22.36,22.36,0,0,1-3.88-2.57Z"/><path class="cls-105" d="M14.38,74.15l.49.55s5.52-2.69,7.69-4.51c3-2.55,7.06-5.26,8.72-6.79A3.84,3.84,0,0,0,32.61,60c-.08.38-.57.35-.57.35l-.74-.12a4.94,4.94,0,0,1-1.41,3c-1.09,1.06-3.64,3.06-5.37,4.41a53.06,53.06,0,0,1-5.15,4A39.86,39.86,0,0,1,14.38,74.15Z"/><path class="cls-106" d="M3.93,67.4l.54.37s2.22-.6,4.94-1.14,3.38-1.91,6.94-2.82,7.88-2.71,8.54-2.7a3.7,3.7,0,0,1,1.64.48A2.37,2.37,0,0,0,25,60.54c-1-.3-3.55.83-6.41,1.61a28.81,28.81,0,0,0-6.3,2.36,19,19,0,0,1-5.54,2.17C5.39,67,4.47,67.24,3.93,67.4Z"/><path class="cls-12" d="M13.5,75.2c.63.38,1.37-.5,1.37-.5s.09-.09.25-.22.61-.5,1.05-.82c.73-.54,1.32-1.47,1-2.16-.43-.9-1.42-.47-2,.21a15.3,15.3,0,0,0-1.38,1.75l0,0C13.27,74.24,12.88,74.83,13.5,75.2Z"/><path class="cls-107" d="M13.5,75.2c.63.38,1.37-.5,1.37-.5s.09-.09.25-.22c-.26-.16-1-.69-1.37-1C13.27,74.24,12.88,74.83,13.5,75.2Z"/><path class="cls-12" d="M1.57,67.64C3,68.87,3.24,69,3.7,68.89a.63.63,0,0,0,.38-.3,2.92,2.92,0,0,0,.39-.82c-.6-.35-3.81-2.8-4.23-2.5A.5.5,0,0,0,0,65.6C-.08,66,.48,66.68,1.57,67.64Z"/><path class="cls-107" d="M1.57,67.64C3,68.87,3.24,69,3.7,68.89a.63.63,0,0,0,.38-.3,24.1,24.1,0,0,1-2.49-1.52A5.44,5.44,0,0,1,0,65.6C-.08,66,.48,66.68,1.57,67.64Z"/></g></g></g></svg>