<svg id="Capa_1" enable-background="new 0 0 512 512" height="512" viewBox="0 0 512 512" width="512" xmlns="http://www.w3.org/2000/svg"><g><g><path d="m456.5 0h-163.5l-10.001 219 10.001 154.763 163.5-15z" fill="#fd6717"/><path d="m55.5 76.618v361.382l74-64.237 10.001-158.763-10.001-214.934c-41.037 1.388-74 35.183-74 76.552z" fill="#ffc869"/><path d="m293 0h-94.609l-34.445 15s-33.574-14.963-34.445-14.934v373.697h163.499z" fill="#fd8c02"/></g><path d="m129.5 0v148.744l34.446-24.424 34.445 24.424v-148.744z" fill="#ff4340"/><g><g><path d="m370.737 238h-77.737l-10.001 32.5 10.001 32.5h77.737z" fill="#f7f0eb"/><path d="m215.263 238h77.737v65h-77.737z" fill="#fffbf5"/></g><g><path d="m355.737 253.001v34.999h-62.737l-10.001 14 10.001 16.001h92.737v-95h-92.737l-10.001 15 10.001 15z" fill="#fdae02"/><path d="m200.263 318.001h92.737v-30.001h-62.737v-34.999h62.737v-30h-92.737z" fill="#fdcb02"/></g></g><g><g><path d="m432.5 373.763h-139.5l-10.001 61.619 10.001 61.618h139.5v-46.618l-10.001-15 10.001-15z" fill="#efe2dd"/><path d="m132.118 373.763c-34.031 0-61.618 27.587-61.618 61.618 0 34.032 27.588 61.619 61.618 61.619h160.882v-123.237z" fill="#f7f0eb"/></g><g><path d="m456.5 512v-30h-163.5l-10.001 14 10.001 16z" fill="#ff4340"/><path d="m456.5 388.763v-30h-163.5l-10.001 12.882 10.001 17.118z" fill="#ff4340"/><path d="m85.5 435.381c0-25.706 20.913-46.618 46.618-46.618h160.882v-30h-160.882c-42.247 0-76.618 34.371-76.618 76.619 0 42.247 34.371 76.618 76.618 76.618h160.882v-30h-160.882c-25.705 0-46.618-20.913-46.618-46.619z" fill="#fd6717"/></g><g><g fill="#efc277"><path d="m432.5 450.382v-30h-139.5l-10.001 15 10.001 15z"/><path d="m158 420.382h135v30h-135z"/></g><g><path d="m432.5 450.382v-30h-139.5l-10.001 15 10.001 15z" fill="#efc277"/><path d="m158 420.382h135v30h-135z" fill="#f2d197"/></g></g></g></g></svg>