<svg xmlns="http://www.w3.org/2000/svg" viewBox="0 0 50.11 50.11"><defs><style>.cls-1{fill:#ffba10;}</style></defs><title>logo</title><g id="Capa_2" data-name="Capa 2"><g id="Capa_1-2" data-name="Capa 1"><circle class="cls-1" cx="25.05" cy="25.05" r="12.38"/><rect class="cls-1" x="23.02" width="4.06" height="10.91" rx="2.03"/><rect class="cls-1" x="23.02" y="39.2" width="4.06" height="10.91" rx="2.03"/><rect class="cls-1" x="3.42" y="19.6" width="4.06" height="10.91" rx="2.03" transform="translate(-19.6 30.51) rotate(-90)"/><rect class="cls-1" x="42.62" y="19.6" width="4.06" height="10.91" rx="2.03" transform="translate(19.6 69.71) rotate(-90)"/><rect class="cls-1" x="9.16" y="33.46" width="4.06" height="10.91" rx="2.03" transform="translate(-8.41 74.35) rotate(-135)"/><rect class="cls-1" x="36.88" y="5.74" width="4.06" height="10.91" rx="2.03" transform="translate(58.51 46.63) rotate(-135)"/><rect class="cls-1" x="9.16" y="5.74" width="4.06" height="10.91" rx="2.03" transform="translate(-4.64 11.19) rotate(-45)"/><rect class="cls-1" x="36.88" y="33.46" width="4.06" height="10.91" rx="2.03" transform="translate(-16.12 38.91) rotate(-45)"/></g></g></svg>